<svg width="300" height="300" viewBox="0 0 300 300" fill="none" xmlns="http://www.w3.org/2000/svg">
<path fill-rule="evenodd" clip-rule="evenodd" d="M150 300C232.843 300 300 232.843 300 150C300 67.1573 232.843 0 150 0C67.1573 0 0 67.1573 0 150C0 232.843 67.1573 300 150 300ZM150 275C219.036 275 275 219.036 275 150C275 80.9644 219.036 25 150 25C80.9644 25 25 80.9644 25 150C25 219.036 80.9644 275 150 275Z" fill="#373737"/>
<line x1="131.048" y1="40.7648" x2="148.765" y2="147.952" stroke="#373737" stroke-width="14" stroke-linecap="round"/>
<line x1="150.204" y1="149.863" x2="56.5074" y2="116.198" stroke="#373737" stroke-width="5" stroke-linecap="round"/>
<line x1="217.259" y1="91.5807" x2="149.581" y2="150.406" stroke="#373737" stroke-width="15" stroke-linecap="round"/>
<circle cx="150" cy="150" r="4" fill="white"/>
</svg>
