<svg width="1281" height="721" viewBox="0 0 1281 721" fill="none" xmlns="http://www.w3.org/2000/svg">
<path d="M1281 0.0414123V339.019L1143.35 379.563L931.437 316.059L590.071 169.551L230.212 188.552L1 269.057V0.0414123H1281Z" fill="#004D80"/>
<path d="M590.069 169.51L931.436 316.018L1143.35 379.522L1281 339.019V557.031L801.986 403.023L550.085 450.026L235.208 386.522H0.998779V269.016L230.21 188.511L590.069 169.51Z" fill="#005C99"/>
<path d="M235.408 386.523L550.285 450.026L802.186 403.024L1281 557.031L1281 720.041H1.49943L1.19824 386.523H235.408Z" fill="#003D66"/>
<path d="M0.998779 614.536L84.2674 677.039L196.224 720.042H0.998779V614.536Z" fill="#C71F37"/>
</svg>
