<svg width="1280" height="2160" viewBox="0 0 1280 2160" fill="none" xmlns="http://www.w3.org/2000/svg">
<path d="M1279.5 1440V1779L1142.5 1819.5L930.5 1756L589 1609.5L229 1628.5L0 1709V1440H1279.5Z" fill="#265373"/>
<path d="M589 1609.5L930.5 1756L1036.5 1787.75L1142.5 1819.5L1280 1779V1997L801 1843L549 1890L234 1826.5H0V1709L229 1628.5L589 1609.5Z" fill="#497588"/>
<path d="M234 1826.5L549 1890L801 1843L1280 1997V2160H0V1826.5H234Z" fill="#152E40"/>
<path d="M847 1440H1279L1246.31 1571.53L1142.39 1545.74L1036.15 1587L921.724 1527.68L847 1440Z" fill="#B21E35"/>
<path d="M1279.5 720V1059L1142.5 1099.5L930.5 1036L589 889.5L229 908.5L0 989V720H1279.5Z" fill="#C71F37"/>
<path d="M589 889.5L930.5 1036L1142.5 1099.5L1280 1059V1277L801 1123L549 1170L234 1106.5H0V989L229 908.5L589 889.5Z" fill="#E01E37"/>
<path d="M234 1106.5L549 1170L801 1123L1280 1277V1440H0V1106.5H234Z" fill="#B21E35"/>
<path d="M1280 720L1279.5 889.471L1199.97 801.727L900.852 720H1280Z" fill="#003D66"/>
<path d="M542.712 1440H75.0293L182.571 1404.4L211.688 1333.97H339.633L477.186 1349.75L542.712 1440Z" fill="#265373"/>
<path d="M1279.5 0V338.98L1142.5 379.478L930.5 315.982L589 169.49L229 188.489L0.000488281 268.984V0H1279.5Z" fill="#004D80"/>
<path d="M589 169.49L930.5 315.981L1142.5 379.478L1280 338.98V556.967L801 402.976L549 449.974L234 386.477H0.000488281V268.984L229 188.489L589 169.49Z" fill="#005C99"/>
<path d="M234 386.478L549 449.974L801 402.977L1280 556.968V719.958H0.000488281V386.478H234Z" fill="#003D66"/>
<path d="M0.00122051 614.964L83.2557 677L195.194 720H0L0.00122051 614.964Z" fill="#C71F37"/>
</svg>
