<svg width="1280" height="720" viewBox="0 0 1280 720" fill="none" xmlns="http://www.w3.org/2000/svg">
<path d="M1279.5 0.000244141V339L1142.5 379.5L930.5 316L589 169.5L229 188.5L0 269V0.000244141H1279.5Z" fill="#C71F37"/>
<path d="M589 169.5L930.5 316L1142.5 379.5L1280 339V557L801 403L549 450L234 386.5H0V269L229 188.5L589 169.5Z" fill="#E01E37"/>
<path d="M234 386.5L549 450L801 403L1280 557V720H0V386.5H234Z" fill="#B21E35"/>
<path d="M1280 0L1279.5 169.471L1199.97 81.727L900.852 0H1280Z" fill="#003D66"/>
<path d="M542.712 720H75.0293L182.571 684.401L211.688 613.969H339.633L477.186 629.749L542.712 720Z" fill="#265373"/>
</svg>
