<svg width="1280" height="720" viewBox="0 0 1280 720" fill="none" xmlns="http://www.w3.org/2000/svg">
<path d="M1279.5 0V339L1142.5 379.5L930.5 316L589 169.5L229 188.5L0 269V0H1279.5Z" fill="#265373"/>
<path d="M589 169.5L930.5 316L1036.5 347.75L1142.5 379.5L1280 339V557L801 403L549 450L234 386.5H0V269L229 188.5L589 169.5Z" fill="#497588"/>
<path d="M234 386.5L549 450L801 403L1280 557V720H0V386.5H234Z" fill="#152E40"/>
<path d="M847 0H1279L1246.31 131.526L1142.39 105.737L1036.15 147L921.724 87.6842L847 0Z" fill="#B21E35"/>
</svg>
