<svg width="379" height="377" viewBox="0 0 379 377" fill="none" xmlns="http://www.w3.org/2000/svg">
<g filter="url(#filter0_d)">
<path fill-rule="evenodd" clip-rule="evenodd" d="M182.953 338.719C186.894 345.944 194.674 349.751 201.82 347.95L216.595 344.225C218.077 343.851 219.484 343.246 220.774 342.427L238.377 331.24C239.574 330.479 240.657 329.542 241.601 328.453L280.312 283.727L318.82 233.408L340.365 199.479L363.415 160.849C367.469 154.053 366.252 144.692 360.506 138.496L330.721 106.372C329.22 104.753 327.474 103.427 325.575 102.462L246.899 62.511C245.602 61.8523 244.246 61.3687 242.864 61.0719L204.931 52.924C196.351 51.0809 188.485 56.6718 186.98 65.6842L179.271 111.838L173.931 165.557L168.212 233.408L168.212 295.114C168.212 296.566 168.379 298.027 168.71 299.464L173.315 319.495C173.723 321.272 174.377 322.993 175.253 324.6L182.953 338.719ZM199.922 327.176C214.485 334.425 232.318 323.261 239.752 302.24C247.186 281.219 241.407 258.302 226.843 251.053C212.28 243.804 194.447 254.968 187.013 275.989C179.579 297.01 185.358 319.927 199.922 327.176Z" fill="#8AD37E"/>
<line x1="5.5" y1="-5.5" x2="77.0242" y2="-5.5" transform="matrix(-0.135032 0.990841 -0.982098 -0.18837 196.134 63.7778)" stroke="#89C790" stroke-width="11" stroke-linecap="round"/>
<line x1="255.547" y1="90.6115" x2="238.638" y2="148.362" stroke="#89C790" stroke-width="11" stroke-linecap="round"/>
<line x1="5.5" y1="-5.5" x2="67.9561" y2="-5.5" transform="matrix(-0.532043 0.846717 -0.749088 -0.66247 309.862 110.143)" stroke="#89C790" stroke-width="11" stroke-linecap="round"/>
<line x1="5.5" y1="-5.5" x2="72.2157" y2="-5.5" transform="matrix(-0.551944 0.833881 -0.731698 -0.681628 352.757 139.544)" stroke="#89C790" stroke-width="11" stroke-linecap="round"/>
</g>
<g filter="url(#filter1_d)">
<path fill-rule="evenodd" clip-rule="evenodd" d="M190.9 352.559C197.162 353.75 203.357 350.256 206.528 343.745L215.096 326.149C215.823 324.655 216.37 323.044 216.719 321.362L221.458 298.532C221.807 296.851 221.955 295.116 221.898 293.38L219.802 229.589L214.058 161.968L207.228 120.269L198.86 76.2086C197.12 67.0424 189.919 60.8215 182.121 61.7474L141.956 66.517C140.267 66.7176 138.62 67.2505 137.082 68.0942L58.5215 111.193C57.4844 111.762 56.5047 112.468 55.6006 113.297L24.559 141.788C17.8882 147.91 16.6349 159.361 21.7476 167.475L44.5236 203.617L74.594 244.276L113.262 294.727L151.718 335.82C152.754 336.927 153.908 337.864 155.149 338.606L170.535 347.808C171.961 348.661 173.486 349.247 175.056 349.546L190.9 352.559ZM193.213 329.531C207.5 321.545 212.442 298.354 204.252 277.732C196.062 257.111 177.84 246.868 163.554 254.854C149.267 262.84 144.324 286.031 152.515 306.653C160.705 327.274 178.926 337.517 193.213 329.531Z" fill="#8AD37E"/>
<line x1="5.5" y1="-5.5" x2="70.4579" y2="-5.5" transform="matrix(0.57604 0.849776 -0.704408 0.672044 25.7079 156.587)" stroke="#89C790" stroke-width="11" stroke-linecap="round"/>
<line x1="5.5" y1="-5.5" x2="65.675" y2="-5.5" transform="matrix(0.485841 0.924529 -0.772338 0.559194 71.7739 129.798)" stroke="#89C790" stroke-width="11" stroke-linecap="round"/>
<line x1="5.5" y1="-5.5" x2="66.0619" y2="-5.5" transform="matrix(0.178846 1.06308 -0.891592 0.211108 130.86 87.3677)" stroke="#89C790" stroke-width="11" stroke-linecap="round"/>
<line x1="5.5" y1="-5.5" x2="70.542" y2="-5.5" transform="matrix(0.156241 1.06761 -0.896156 0.184583 177.983 69.2344)" stroke="#89C790" stroke-width="11" stroke-linecap="round"/>
</g>
<defs>
<filter id="filter0_d" x="168.212" y="52.5732" width="210.586" height="309.82" filterUnits="userSpaceOnUse" color-interpolation-filters="sRGB">
<feFlood flood-opacity="0" result="BackgroundImageFix"/>
<feColorMatrix in="SourceAlpha" type="matrix" values="0 0 0 0 0 0 0 0 0 0 0 0 0 0 0 0 0 0 127 0" result="hardAlpha"/>
<feOffset dx="9" dy="10"/>
<feGaussianBlur stdDeviation="2"/>
<feComposite in2="hardAlpha" operator="out"/>
<feColorMatrix type="matrix" values="0 0 0 0 0 0 0 0 0 0 0 0 0 0 0 0 0 0 0.25 0"/>
<feBlend mode="normal" in2="BackgroundImageFix" result="effect1_dropShadow"/>
<feBlend mode="normal" in="SourceGraphic" in2="effect1_dropShadow" result="shape"/>
</filter>
<filter id="filter1_d" x="8.60358" y="53.6562" width="235.306" height="323.133" filterUnits="userSpaceOnUse" color-interpolation-filters="sRGB">
<feFlood flood-opacity="0" result="BackgroundImageFix"/>
<feColorMatrix in="SourceAlpha" type="matrix" values="0 0 0 0 0 0 0 0 0 0 0 0 0 0 0 0 0 0 127 0" result="hardAlpha"/>
<feOffset dx="6" dy="8"/>
<feGaussianBlur stdDeviation="8"/>
<feComposite in2="hardAlpha" operator="out"/>
<feColorMatrix type="matrix" values="0 0 0 0 0 0 0 0 0 0 0 0 0 0 0 0 0 0 0.25 0"/>
<feBlend mode="normal" in2="BackgroundImageFix" result="effect1_dropShadow"/>
<feBlend mode="normal" in="SourceGraphic" in2="effect1_dropShadow" result="shape"/>
</filter>
</defs>
</svg>
