<svg width="812" height="903" viewBox="0 0 812 903" fill="none" xmlns="http://www.w3.org/2000/svg">
<path d="M771.4 453C771.4 382.531 757.961 313.046 732.167 250.144L406 453H771.4Z" fill="#DB7474"/>
<path d="M406 22C472.489 22 537.718 43.3987 594.66 83.8907C651.601 124.383 698.096 182.433 729.137 251.788L406 453V22Z" fill="#DFD393"/>
<path d="M406 22C358.015 22 310.5 33.3939 266.168 55.5311C221.835 77.6683 181.554 110.115 147.623 151.019C113.693 191.924 86.7776 240.484 68.4145 293.928C50.0514 347.372 40.6001 404.653 40.6001 462.5L406 462.5V22Z" fill="#88CF8F"/>
<path d="M417.315 500.752L452.183 436.403L394.685 405.248L359.817 469.597L417.315 500.752ZM339.416 172L312.831 271.307L405.197 238.113L339.416 172ZM413.999 450.125L365.054 243.564L349.055 249.313L398.001 455.875L413.999 450.125Z" fill="#282828"/>
<path fill-rule="evenodd" clip-rule="evenodd" d="M30.905 308.658C10.5015 369.321 4.6611e-06 434.339 0 500L406 500L812 500.001C812 434.34 801.499 369.322 781.095 308.659C760.692 247.996 730.786 192.877 693.086 146.447C655.385 100.018 610.628 63.188 561.37 38.0605C512.112 12.9331 459.317 8.68853e-05 406.001 4.37768e-10C352.684 -8.68835e-05 299.889 12.9327 250.631 38.06C201.373 63.1874 156.615 100.017 118.915 146.446C81.2142 192.876 51.3084 247.995 30.905 308.658ZM54.0361 372.644C50.1143 388.036 48.1452 403.926 40.6 452.999L406 452.999L771.4 453C762.021 382.312 761.905 381.97 747.454 339.252C746.266 335.74 744.981 331.941 743.586 327.792C725.223 273.196 698.308 223.588 664.377 181.802C630.447 140.015 590.165 106.868 545.833 84.2535C501.501 61.6388 453.986 49.9991 406 49.999C358.015 49.9989 310.5 61.6385 266.168 84.2531C221.835 106.868 181.554 140.014 147.623 181.801C113.693 223.587 86.7776 273.195 68.4145 327.791C60.7159 350.681 56.8672 361.533 54.0361 372.644Z" fill="#585858"/>
</svg>
