<svg width="100" height="116" viewBox="0 0 100 116" fill="none" xmlns="http://www.w3.org/2000/svg">
<path d="M74.27 93.7146C64.399 99.1949 52.9638 101.173 41.8254 99.3272L44.2769 84.5344C46.1392 84.8407 48.051 85 50 85C69.33 85 85 69.33 85 50C85 30.67 69.33 15 50 15C30.67 15 15 30.67 15 50C15 55.9785 16.499 61.607 19.1416 66.53L5.92524 73.6096C0.594058 63.6573 -1.21188 52.1936 0.801333 41.0843C2.81455 29.975 8.5284 19.874 17.013 12.4253C25.4975 4.97669 36.2533 0.618851 47.5298 0.0610574C58.8063 -0.496736 69.9396 2.77836 79.1178 9.35332C88.2961 15.9283 94.9789 25.416 98.0786 36.2724C101.178 47.1289 100.513 58.7148 96.1896 69.1447C91.8667 79.5745 84.141 88.2343 74.27 93.7146Z" fill="white"/>
<path d="M20.2746 82.3708C19.8333 80.7712 20.7744 79.1172 22.375 78.6794L53.2955 70.2207C55.872 69.5158 58.0155 72.2763 56.6945 74.598L34.2981 113.959C32.9771 116.281 29.509 115.848 28.7987 113.273L20.2746 82.3708Z" fill="white"/>
</svg>
