<svg width="380" height="406" viewBox="0 0 380 406" fill="none" xmlns="http://www.w3.org/2000/svg">
<g filter="url(#filter0_d)">
<path fill-rule="evenodd" clip-rule="evenodd" d="M183.869 346.471C187.81 353.697 195.59 357.503 202.736 355.702L217.512 351.977C218.994 351.604 220.401 350.998 221.69 350.179L239.293 338.992C240.49 338.232 241.574 337.295 242.517 336.205L281.228 291.479L319.736 241.16L341.281 207.231L364.331 168.601C368.386 161.805 367.168 152.444 361.422 146.248L331.637 114.125C330.136 112.506 328.391 111.18 326.491 110.215L247.815 70.2634C246.518 69.6048 245.162 69.1212 243.781 68.8244L205.848 60.6765C197.267 58.8334 189.402 64.4242 187.896 73.4366L180.188 119.591L174.847 173.309L169.128 241.16L169.128 302.867C169.128 304.318 169.295 305.779 169.626 307.217L174.231 327.247C174.639 329.024 175.293 330.746 176.169 332.352L183.869 346.471ZM200.838 334.929C215.401 342.177 233.234 331.013 240.668 309.992C248.102 288.971 242.323 266.054 227.759 258.805C213.196 251.556 195.363 262.721 187.929 283.742C180.495 304.762 186.274 327.68 200.838 334.929Z" fill="#8AD37E"/>
<line x1="5.5" y1="-5.5" x2="77.0242" y2="-5.5" transform="matrix(-0.135032 0.990841 -0.982098 -0.18837 197.05 71.5303)" stroke="#89C790" stroke-width="11" stroke-linecap="round"/>
<line x1="256.463" y1="98.3639" x2="239.554" y2="156.114" stroke="#89C790" stroke-width="11" stroke-linecap="round"/>
<line x1="5.5" y1="-5.5" x2="67.9561" y2="-5.5" transform="matrix(-0.532043 0.846717 -0.749088 -0.66247 310.778 117.895)" stroke="#89C790" stroke-width="11" stroke-linecap="round"/>
<line x1="5.5" y1="-5.5" x2="72.2157" y2="-5.5" transform="matrix(-0.551944 0.833881 -0.731698 -0.681628 353.673 147.297)" stroke="#89C790" stroke-width="11" stroke-linecap="round"/>
</g>
<g filter="url(#filter1_d)">
<path fill-rule="evenodd" clip-rule="evenodd" d="M191.816 360.312C198.078 361.503 204.274 358.009 207.444 351.498L216.012 333.902C216.74 332.408 217.286 330.797 217.635 329.115L222.374 306.285C222.723 304.604 222.871 302.869 222.814 301.133L220.719 237.342L214.975 169.721L208.144 128.022L199.777 83.9615C198.036 74.7953 190.835 68.5744 183.037 69.5003L142.872 74.27C141.183 74.4705 139.536 75.0034 137.998 75.8471L59.4377 118.946C58.4006 119.515 57.4209 120.221 56.5168 121.05L25.4752 149.541C18.8044 155.663 17.5511 167.114 22.6638 175.227L45.4398 211.37L75.5102 252.029L114.178 302.48L152.634 343.573C153.67 344.68 154.824 345.617 156.065 346.359L171.451 355.561C172.877 356.414 174.402 357 175.973 357.299L191.816 360.312ZM194.129 337.284C208.416 329.298 213.358 306.107 205.168 285.485C196.978 264.864 178.757 254.621 164.47 262.607C150.183 270.593 145.241 293.784 153.431 314.406C161.621 335.027 179.842 345.27 194.129 337.284Z" fill="#8AD37E"/>
<line x1="5.5" y1="-5.5" x2="70.4579" y2="-5.5" transform="matrix(0.57604 0.849776 -0.704408 0.672044 26.6241 164.34)" stroke="#89C790" stroke-width="11" stroke-linecap="round"/>
<line x1="5.5" y1="-5.5" x2="65.675" y2="-5.5" transform="matrix(0.485841 0.924529 -0.772338 0.559194 72.6901 137.551)" stroke="#89C790" stroke-width="11" stroke-linecap="round"/>
<line x1="5.5" y1="-5.5" x2="66.0619" y2="-5.5" transform="matrix(0.178846 1.06308 -0.891592 0.211108 131.777 95.1206)" stroke="#89C790" stroke-width="11" stroke-linecap="round"/>
<line x1="5.5" y1="-5.5" x2="70.542" y2="-5.5" transform="matrix(0.156241 1.06761 -0.896156 0.184583 178.899 76.9873)" stroke="#89C790" stroke-width="11" stroke-linecap="round"/>
</g>
<g filter="url(#filter2_d)">
<mask id="path-11-inside-1" fill="white">
<path fill-rule="evenodd" clip-rule="evenodd" d="M27.5223 313C30.3113 335.5 62.0641 391.5 90.0223 391.5C119.564 389 150.022 374.5 155.022 313C155.022 311.439 155.066 309.629 155.114 307.617C155.701 283.199 157.002 229.002 90.0223 229C17.5223 228.998 22.5641 273 27.5223 313ZM117.116 285.355C116.613 284.455 115.243 284.811 115.243 285.842V298.824L116.691 312.924C116.738 313.383 117.093 313.75 117.55 313.812L124.903 314.817C125.569 314.908 126.134 314.329 126.026 313.666L123.22 296.409C123.201 296.294 123.162 296.183 123.106 296.082L117.116 285.355ZM67.7149 285.625C67.6722 284.596 66.2881 284.296 65.8232 285.216L60.2818 296.181C60.2293 296.285 60.1954 296.397 60.1815 296.513L58.091 313.871C58.0106 314.538 58.5984 315.093 59.26 314.975L66.5652 313.667C67.0194 313.586 67.359 313.204 67.3871 312.744L68.2514 298.596L67.7149 285.625ZM85.5868 295.317C86.0379 294.378 87.4442 294.668 87.4872 295.709L87.7912 303.058L87.267 312.356C87.2411 312.816 86.9042 313.199 86.4512 313.283L82.4916 314.018C81.8311 314.141 81.2399 313.59 81.3154 312.922L82.5846 301.691C82.5972 301.58 82.6285 301.472 82.677 301.37L85.5868 295.317ZM95.9982 296.002C96.0412 294.961 97.4475 294.671 97.8986 295.61L100.808 301.663C100.857 301.764 100.888 301.873 100.901 301.984L102.17 313.215C102.245 313.883 101.654 314.434 100.994 314.311L97.0342 313.576C96.5812 313.491 96.2443 313.109 96.2184 312.649L95.6942 303.351L95.9982 296.002ZM82.3055 248.204C82.6944 247.159 84.2427 247.438 84.2427 248.553V252.176L83.7388 259.535C83.7081 259.984 83.3821 260.357 82.9419 260.447L81.5854 260.725C80.9215 260.861 80.3174 260.311 80.3904 259.637L81.3388 250.889C81.3478 250.806 81.3669 250.725 81.3958 250.648L82.3055 248.204ZM95.2427 248.553C95.2427 247.438 96.791 247.159 97.1799 248.204L98.0896 250.648C98.1185 250.725 98.1377 250.806 98.1466 250.889L99.095 259.637C99.168 260.311 98.5639 260.861 97.9 260.725L96.5435 260.447C96.1033 260.357 95.7773 259.984 95.7466 259.535L95.2427 252.176V248.553Z"/>
</mask>
<path fill-rule="evenodd" clip-rule="evenodd" d="M27.5223 313C30.3113 335.5 62.0641 391.5 90.0223 391.5C119.564 389 150.022 374.5 155.022 313C155.022 311.439 155.066 309.629 155.114 307.617C155.701 283.199 157.002 229.002 90.0223 229C17.5223 228.998 22.5641 273 27.5223 313ZM117.116 285.355C116.613 284.455 115.243 284.811 115.243 285.842V298.824L116.691 312.924C116.738 313.383 117.093 313.75 117.55 313.812L124.903 314.817C125.569 314.908 126.134 314.329 126.026 313.666L123.22 296.409C123.201 296.294 123.162 296.183 123.106 296.082L117.116 285.355ZM67.7149 285.625C67.6722 284.596 66.2881 284.296 65.8232 285.216L60.2818 296.181C60.2293 296.285 60.1954 296.397 60.1815 296.513L58.091 313.871C58.0106 314.538 58.5984 315.093 59.26 314.975L66.5652 313.667C67.0194 313.586 67.359 313.204 67.3871 312.744L68.2514 298.596L67.7149 285.625ZM85.5868 295.317C86.0379 294.378 87.4442 294.668 87.4872 295.709L87.7912 303.058L87.267 312.356C87.2411 312.816 86.9042 313.199 86.4512 313.283L82.4916 314.018C81.8311 314.141 81.2399 313.59 81.3154 312.922L82.5846 301.691C82.5972 301.58 82.6285 301.472 82.677 301.37L85.5868 295.317ZM95.9982 296.002C96.0412 294.961 97.4475 294.671 97.8986 295.61L100.808 301.663C100.857 301.764 100.888 301.873 100.901 301.984L102.17 313.215C102.245 313.883 101.654 314.434 100.994 314.311L97.0342 313.576C96.5812 313.491 96.2443 313.109 96.2184 312.649L95.6942 303.351L95.9982 296.002ZM82.3055 248.204C82.6944 247.159 84.2427 247.438 84.2427 248.553V252.176L83.7388 259.535C83.7081 259.984 83.3821 260.357 82.9419 260.447L81.5854 260.725C80.9215 260.861 80.3174 260.311 80.3904 259.637L81.3388 250.889C81.3478 250.806 81.3669 250.725 81.3958 250.648L82.3055 248.204ZM95.2427 248.553C95.2427 247.438 96.791 247.159 97.1799 248.204L98.0896 250.648C98.1185 250.725 98.1377 250.806 98.1466 250.889L99.095 259.637C99.168 260.311 98.5639 260.861 97.9 260.725L96.5435 260.447C96.1033 260.357 95.7773 259.984 95.7466 259.535L95.2427 252.176V248.553Z" fill="#404040"/>
<path d="M90.0223 391.5L90.3596 395.486L90.1912 395.5H90.0223V391.5ZM27.5223 313L31.4919 312.508L27.5223 313ZM155.022 313H159.022V313.162L159.009 313.324L155.022 313ZM155.114 307.617L151.115 307.521L155.114 307.617ZM90.0223 229L90.0224 225L90.0223 229ZM117.116 285.355L120.608 283.404H120.608L117.116 285.355ZM115.243 298.824L111.264 299.232L111.243 299.028V298.824H115.243ZM116.691 312.924L120.67 312.515L120.67 312.515L116.691 312.924ZM117.55 313.812L117.009 317.776L117.009 317.776L117.55 313.812ZM124.903 314.817L124.362 318.78H124.362L124.903 314.817ZM126.026 313.666L129.974 313.024V313.024L126.026 313.666ZM123.22 296.409L127.168 295.767L127.168 295.767L123.22 296.409ZM123.106 296.082L126.598 294.132L126.598 294.132L123.106 296.082ZM65.8232 285.216L62.2531 283.412L62.2531 283.412L65.8232 285.216ZM67.7149 285.625L71.7114 285.46V285.46L67.7149 285.625ZM60.2818 296.181L56.7117 294.377L56.7117 294.377L60.2818 296.181ZM60.1815 296.513L56.2102 296.035L56.2102 296.034L60.1815 296.513ZM58.091 313.871L54.1197 313.393V313.393L58.091 313.871ZM59.26 314.975L58.5552 311.037H58.5552L59.26 314.975ZM66.5652 313.667L67.2701 317.605H67.27L66.5652 313.667ZM67.3871 312.744L71.3797 312.988L71.3797 312.988L67.3871 312.744ZM68.2514 298.596L72.248 298.43L72.2564 298.635L72.2439 298.84L68.2514 298.596ZM87.4872 295.709L91.4838 295.543V295.543L87.4872 295.709ZM85.5868 295.317L81.9816 293.584V293.584L85.5868 295.317ZM87.7912 303.058L91.7878 302.892L91.7959 303.088L91.7849 303.283L87.7912 303.058ZM87.267 312.356L83.2734 312.131V312.131L87.267 312.356ZM86.4512 313.283L87.1816 317.215H87.1816L86.4512 313.283ZM82.4916 314.018L83.222 317.951L83.222 317.951L82.4916 314.018ZM81.3154 312.922L85.2901 313.372L85.2901 313.372L81.3154 312.922ZM82.5846 301.691L86.5593 302.141V302.141L82.5846 301.691ZM82.677 301.37L79.0718 299.638L79.0718 299.638L82.677 301.37ZM97.8986 295.61L101.504 293.877L101.504 293.877L97.8986 295.61ZM95.9982 296.002L99.9948 296.167V296.167L95.9982 296.002ZM100.808 301.663L104.414 299.931L104.414 299.931L100.808 301.663ZM100.901 301.984L96.9261 302.434L96.9261 302.434L100.901 301.984ZM102.17 313.215L98.1953 313.665V313.665L102.17 313.215ZM100.994 314.311L100.263 318.244L100.263 318.244L100.994 314.311ZM97.0342 313.576L96.3038 317.508H96.3038L97.0342 313.576ZM96.2184 312.649L100.212 312.424V312.424L96.2184 312.649ZM95.6942 303.351L91.7005 303.576L91.6895 303.381L91.6976 303.185L95.6942 303.351ZM82.3055 248.204L78.5568 246.808V246.808L82.3055 248.204ZM84.2427 252.176H88.2427V252.313L88.2334 252.45L84.2427 252.176ZM83.7388 259.535L79.7481 259.262L79.7481 259.262L83.7388 259.535ZM82.9419 260.447L83.745 264.365H83.745L82.9419 260.447ZM81.5854 260.725L80.7823 256.806V256.806L81.5854 260.725ZM80.3904 259.637L76.4137 259.206V259.206L80.3904 259.637ZM81.3388 250.889L85.3155 251.32V251.32L81.3388 250.889ZM81.3958 250.648L85.1445 252.043L85.1445 252.043L81.3958 250.648ZM97.1799 248.204L93.4312 249.599V249.599L97.1799 248.204ZM98.0896 250.648L101.838 249.252L101.838 249.252L98.0896 250.648ZM98.1466 250.889L94.1699 251.32L94.1699 251.32L98.1466 250.889ZM99.095 259.637L103.072 259.206V259.206L99.095 259.637ZM97.9 260.725L98.7031 256.806V256.806L97.9 260.725ZM96.5435 260.447L95.7404 264.365H95.7404L96.5435 260.447ZM95.7466 259.535L99.7373 259.262L99.7373 259.262L95.7466 259.535ZM95.2427 252.176L91.2521 252.45L91.2427 252.313V252.176H95.2427ZM90.0223 395.5C81.7253 395.5 73.6232 391.378 66.3443 385.513C59.0066 379.601 52.083 371.581 46.0581 362.983C40.0203 354.367 34.7937 345.04 30.8884 336.406C27.0123 327.837 24.3217 319.696 23.5527 313.492L31.4919 312.508C32.1174 317.554 34.4417 324.85 38.1774 333.109C41.8838 341.304 46.8658 350.196 52.6096 358.392C58.3662 366.607 64.7973 373.993 71.3637 379.284C77.9888 384.622 84.3402 387.5 90.0223 387.5V395.5ZM159.009 313.324C156.46 344.676 147.364 364.724 134.517 377.24C121.672 389.754 105.634 394.193 90.3596 395.486L89.685 387.514C103.952 386.307 117.915 382.246 128.934 371.51C139.952 360.776 148.584 342.824 151.035 312.676L159.009 313.324ZM159.113 307.713C159.064 309.74 159.022 311.497 159.022 313H151.022C151.022 311.381 151.067 309.519 151.115 307.521L159.113 307.713ZM90.0224 225C107.304 225 120.522 228.499 130.56 234.403C140.626 240.323 147.23 248.507 151.511 257.421C159.964 275.019 159.403 295.638 159.113 307.713L151.115 307.521C151.412 295.177 151.795 276.489 144.3 260.884C140.607 253.196 135.015 246.304 126.505 241.299C117.968 236.278 106.231 233 90.0222 233L90.0224 225ZM23.5527 313.492C22.3179 303.531 21.039 293.044 21.0009 283.015C20.9627 272.985 22.1567 263.093 26.0762 254.361C30.0454 245.519 36.7189 238.075 47.2063 232.911C57.5902 227.797 71.5373 225 90.0224 225L90.0222 233C72.2573 233 59.6471 235.702 50.7407 240.088C41.9377 244.423 36.5878 250.479 33.3747 257.637C30.1119 264.906 28.9648 273.514 29.0008 282.985C29.0369 292.456 30.2476 302.469 31.4919 312.508L23.5527 313.492ZM111.243 285.842C111.243 280.688 118.096 278.905 120.608 283.404L113.623 287.305C115.131 290.004 119.243 288.934 119.243 285.842H111.243ZM111.243 298.824V285.842H119.243V298.824H111.243ZM112.712 313.332L111.264 299.232L119.222 298.415L120.67 312.515L112.712 313.332ZM117.009 317.776C114.723 317.463 112.948 315.627 112.712 313.332L120.67 312.515C120.529 311.138 119.463 310.037 118.092 309.849L117.009 317.776ZM124.362 318.78L117.009 317.776L118.092 309.849L125.445 310.854L124.362 318.78ZM129.974 313.024C130.513 316.341 127.692 319.235 124.362 318.78L125.445 310.854C123.447 310.581 121.754 312.317 122.078 314.308L129.974 313.024ZM127.168 295.767L129.974 313.024L122.078 314.308L119.271 297.051L127.168 295.767ZM126.598 294.132C126.882 294.639 127.074 295.193 127.168 295.767L119.271 297.051C119.327 297.395 119.443 297.727 119.613 298.032L126.598 294.132ZM120.608 283.404L126.598 294.132L119.613 298.032L113.623 287.305L120.608 283.404ZM62.2531 283.412C64.5775 278.812 71.4984 280.311 71.7114 285.46L63.7183 285.791C63.8461 288.88 67.9986 289.78 69.3932 287.02L62.2531 283.412ZM56.7117 294.377L62.2531 283.412L69.3932 287.02L63.8519 297.985L56.7117 294.377ZM56.2102 296.034C56.2797 295.457 56.4495 294.896 56.7117 294.377L63.8519 297.985C64.0092 297.674 64.111 297.338 64.1528 296.991L56.2102 296.034ZM54.1197 313.393L56.2102 296.035L64.1528 296.991L62.0623 314.349L54.1197 313.393ZM59.9649 318.912C56.6566 319.504 53.7179 316.729 54.1197 313.393L62.0623 314.349C62.3034 312.347 60.5402 310.682 58.5552 311.037L59.9649 318.912ZM67.27 317.605L59.9649 318.912L58.5552 311.037L65.8604 309.73L67.27 317.605ZM71.3797 312.988C71.239 315.29 69.541 317.198 67.2701 317.605L65.8604 309.73C64.4977 309.974 63.479 311.118 63.3946 312.5L71.3797 312.988ZM72.2439 298.84L71.3797 312.988L63.3946 312.5L64.2588 298.352L72.2439 298.84ZM71.7114 285.46L72.248 298.43L64.2548 298.761L63.7183 285.791L71.7114 285.46ZM83.4907 295.874C83.6198 298.995 87.8386 299.865 89.192 297.05L81.9816 293.584C84.2372 288.891 91.2686 290.341 91.4838 295.543L83.4907 295.874ZM83.7947 303.223L83.4907 295.874L91.4838 295.543L91.7878 302.892L83.7947 303.223ZM83.2734 312.131L83.7976 302.833L91.7849 303.283L91.2607 312.581L83.2734 312.131ZM85.7208 309.35C84.3619 309.602 83.3512 310.75 83.2734 312.131L91.2607 312.581C91.131 314.881 89.4466 316.795 87.1816 317.215L85.7208 309.35ZM81.7613 310.085L85.7209 309.35L87.1816 317.215L83.222 317.951L81.7613 310.085ZM85.2901 313.372C85.5164 311.369 83.7429 309.717 81.7613 310.085L83.222 317.951C79.9193 318.564 76.9634 315.811 77.3407 312.473L85.2901 313.372ZM86.5593 302.141L85.2901 313.372L77.3407 312.473L78.6099 301.242L86.5593 302.141ZM86.2822 303.103C86.4279 302.8 86.5216 302.475 86.5593 302.141L78.6099 301.242C78.6729 300.685 78.829 300.143 79.0718 299.638L86.2822 303.103ZM89.192 297.05L86.2822 303.103L79.0718 299.638L81.9816 293.584L89.192 297.05ZM94.2934 297.342C95.6468 300.158 99.8656 299.288 99.9948 296.167L92.0016 295.836C92.2168 290.634 99.2482 289.184 101.504 293.877L94.2934 297.342ZM97.2032 303.396L94.2934 297.342L101.504 293.877L104.414 299.931L97.2032 303.396ZM96.9261 302.434C96.9638 302.768 97.0575 303.093 97.2032 303.396L104.414 299.931C104.656 300.436 104.813 300.978 104.875 301.535L96.9261 302.434ZM98.1953 313.665L96.9261 302.434L104.875 301.535L106.145 312.766L98.1953 313.665ZM101.724 310.378C99.7425 310.01 97.969 311.662 98.1953 313.665L106.145 312.766C106.522 316.104 103.566 318.857 100.263 318.244L101.724 310.378ZM97.7646 309.643L101.724 310.378L100.263 318.244L96.3038 317.508L97.7646 309.643ZM100.212 312.424C100.134 311.043 99.1235 309.895 97.7646 309.643L96.3038 317.508C94.0388 317.088 92.3544 315.174 92.2247 312.874L100.212 312.424ZM99.6878 303.126L100.212 312.424L92.2247 312.874L91.7005 303.576L99.6878 303.126ZM99.9948 296.167L99.6908 303.516L91.6976 303.185L92.0016 295.836L99.9948 296.167ZM80.2427 248.553C80.2427 251.897 84.8876 252.733 86.0542 249.599L78.5568 246.808C80.5012 241.585 88.2427 242.979 88.2427 248.553H80.2427ZM80.2427 252.176V248.553H88.2427V252.176H80.2427ZM79.7481 259.262L80.2521 251.903L88.2334 252.45L87.7295 259.809L79.7481 259.262ZM82.1388 256.528C80.8182 256.799 79.8402 257.917 79.7481 259.262L87.7295 259.809C87.576 262.05 85.9461 263.914 83.745 264.365L82.1388 256.528ZM80.7823 256.806L82.1388 256.528L83.745 264.365L82.3885 264.643L80.7823 256.806ZM84.3671 260.069C84.5862 258.047 82.7739 256.398 80.7823 256.806L82.3885 264.643C79.0691 265.324 76.0485 262.575 76.4137 259.206L84.3671 260.069ZM85.3155 251.32L84.3671 260.069L76.4137 259.206L77.3621 250.458L85.3155 251.32ZM85.1445 252.043C85.2313 251.81 85.2887 251.567 85.3155 251.32L77.3621 250.458C77.4068 250.046 77.5025 249.641 77.6472 249.252L85.1445 252.043ZM86.0542 249.599L85.1445 252.043L77.6471 249.252L78.5568 246.808L86.0542 249.599ZM93.4312 249.599C94.5978 252.733 99.2427 251.897 99.2427 248.553H91.2427C91.2427 242.98 98.9842 241.585 100.929 246.808L93.4312 249.599ZM94.3409 252.043L93.4312 249.599L100.929 246.808L101.838 249.252L94.3409 252.043ZM94.1699 251.32C94.1967 251.567 94.2542 251.81 94.3409 252.043L101.838 249.252C101.983 249.641 102.079 250.046 102.123 250.458L94.1699 251.32ZM95.1183 260.069L94.1699 251.32L102.123 250.458L103.072 259.206L95.1183 260.069ZM98.7031 256.806C96.7115 256.398 94.8992 258.047 95.1183 260.069L103.072 259.206C103.437 262.575 100.416 265.324 97.0969 264.643L98.7031 256.806ZM97.3466 256.528L98.7031 256.806L97.0969 264.643L95.7404 264.365L97.3466 256.528ZM99.7373 259.262C99.6452 257.917 98.6673 256.799 97.3466 256.528L95.7404 264.365C93.5393 263.914 91.9094 262.05 91.756 259.809L99.7373 259.262ZM99.2334 251.903L99.7373 259.262L91.756 259.809L91.2521 252.45L99.2334 251.903ZM99.2427 248.553V252.176H91.2427V248.553H99.2427Z" fill="#2E2E2E" mask="url(#path-11-inside-1)"/>
<path d="M102.243 277.5L99.4836 273.738C97.718 271.33 95.13 269.655 92.2108 269.029L92.1279 269.011C90.5545 268.674 88.9286 268.663 87.3508 268.979V268.979C84.0974 269.629 81.2695 271.622 79.5626 274.467L77.7427 277.5" stroke="black" stroke-width="4" stroke-linecap="round"/>
<path d="M126.743 341.501L124.255 339.443C116.468 332.998 106.761 329.323 96.6581 328.995L96.4483 328.988C94.3142 328.919 92.178 329.009 90.0574 329.259V329.259C81.0787 330.315 72.665 334.187 66.0224 340.32L64.7427 341.501" stroke="black" stroke-width="4" stroke-linecap="round"/>
</g>
<g filter="url(#filter3_d)">
<mask id="path-15-inside-2" fill="white">
<path fill-rule="evenodd" clip-rule="evenodd" d="M191.988 112.566C183.806 133.71 139.375 180.295 112.258 173.489C84.2138 163.872 58.2019 142.393 68.3241 81.5265C68.7041 80.0126 69.1026 78.2464 69.5456 76.2829C74.9212 52.4569 86.8526 -0.426776 151.818 15.8775C222.137 33.5255 206.535 74.9761 191.988 112.566ZM111.82 63.9409C112.527 63.1904 113.769 63.87 113.518 64.8697L110.358 77.4607L105.521 90.7841C105.363 91.2178 104.93 91.4874 104.471 91.4367L97.0947 90.6211C96.4265 90.5473 96.0201 89.8485 96.2863 89.2312L103.209 73.1767C103.255 73.0698 103.319 72.9719 103.399 72.8872L111.82 63.9409ZM159.669 76.2299C159.961 75.2415 161.377 75.2877 161.604 76.2931L164.309 88.2779C164.334 88.3913 164.34 88.5084 164.325 88.6238L162.127 105.969C162.043 106.635 161.338 107.031 160.725 106.755L153.958 103.708C153.537 103.518 153.3 103.066 153.385 102.612L155.991 88.6795L159.669 76.2299ZM139.976 81.2789C139.767 80.2587 138.332 80.1976 138.037 81.1963L135.953 88.2504L134.198 97.3962C134.111 97.8487 134.345 98.302 134.763 98.4939L138.425 100.171C139.036 100.451 139.743 100.061 139.832 99.3949L141.336 88.1926C141.35 88.0815 141.347 87.9687 141.324 87.8589L139.976 81.2789ZM129.711 79.4085C129.922 78.3889 128.629 77.7653 127.963 78.5658L123.667 83.7291C123.595 83.8152 123.538 83.9129 123.499 84.0178L119.534 94.6021C119.298 95.2312 119.738 95.9091 120.408 95.9509L124.428 96.2017C124.887 96.2303 125.307 95.9411 125.444 95.5013L128.216 86.6106L129.711 79.4085ZM154.627 36.3823C154.505 35.2744 152.935 35.168 152.664 36.2491L151.781 39.7637L150.479 47.024C150.399 47.4663 150.625 47.9073 151.03 48.1019L152.278 48.7018C152.889 48.9954 153.608 48.6093 153.702 47.938L154.911 39.2218C154.923 39.1396 154.924 39.0564 154.915 38.974L154.627 36.3823ZM141.995 33.5712C142.266 32.4901 140.832 31.8427 140.201 32.7612L138.723 34.91C138.676 34.9784 138.638 35.0522 138.609 35.13L135.56 43.3845C135.325 44.0202 135.777 44.7005 136.454 44.7301L137.837 44.7907C138.286 44.8104 138.693 44.5281 138.832 44.1008L141.112 37.0859L141.995 33.5712Z"/>
</mask>
<path fill-rule="evenodd" clip-rule="evenodd" d="M191.988 112.566C183.806 133.71 139.375 180.295 112.258 173.489C84.2138 163.872 58.2019 142.393 68.3241 81.5265C68.7041 80.0126 69.1026 78.2464 69.5456 76.2829C74.9212 52.4569 86.8526 -0.426776 151.818 15.8775C222.137 33.5255 206.535 74.9761 191.988 112.566ZM111.82 63.9409C112.527 63.1904 113.769 63.87 113.518 64.8697L110.358 77.4607L105.521 90.7841C105.363 91.2178 104.93 91.4874 104.471 91.4367L97.0947 90.6211C96.4265 90.5473 96.0201 89.8485 96.2863 89.2312L103.209 73.1767C103.255 73.0698 103.319 72.9719 103.399 72.8872L111.82 63.9409ZM159.669 76.2299C159.961 75.2415 161.377 75.2877 161.604 76.2931L164.309 88.2779C164.334 88.3913 164.34 88.5084 164.325 88.6238L162.127 105.969C162.043 106.635 161.338 107.031 160.725 106.755L153.958 103.708C153.537 103.518 153.3 103.066 153.385 102.612L155.991 88.6795L159.669 76.2299ZM139.976 81.2789C139.767 80.2587 138.332 80.1976 138.037 81.1963L135.953 88.2504L134.198 97.3962C134.111 97.8487 134.345 98.302 134.763 98.4939L138.425 100.171C139.036 100.451 139.743 100.061 139.832 99.3949L141.336 88.1926C141.35 88.0815 141.347 87.9687 141.324 87.8589L139.976 81.2789ZM129.711 79.4085C129.922 78.3889 128.629 77.7653 127.963 78.5658L123.667 83.7291C123.595 83.8152 123.538 83.9129 123.499 84.0178L119.534 94.6021C119.298 95.2312 119.738 95.9091 120.408 95.9509L124.428 96.2017C124.887 96.2303 125.307 95.9411 125.444 95.5013L128.216 86.6106L129.711 79.4085ZM154.627 36.3823C154.505 35.2744 152.935 35.168 152.664 36.2491L151.781 39.7637L150.479 47.024C150.399 47.4663 150.625 47.9073 151.03 48.1019L152.278 48.7018C152.889 48.9954 153.608 48.6093 153.702 47.938L154.911 39.2218C154.923 39.1396 154.924 39.0564 154.915 38.974L154.627 36.3823ZM141.995 33.5712C142.266 32.4901 140.832 31.8427 140.201 32.7612L138.723 34.91C138.676 34.9784 138.638 35.0522 138.609 35.13L135.56 43.3845C135.325 44.0202 135.777 44.7005 136.454 44.7301L137.837 44.7907C138.286 44.8104 138.693 44.5281 138.832 44.1008L141.112 37.0859L141.995 33.5712Z" fill="#404040"/>
<path d="M112.258 173.489L110.961 177.272L111.121 177.327L111.284 177.368L112.258 173.489ZM191.988 112.566L188.258 111.122L191.988 112.566ZM68.3241 81.5265L64.4445 80.5527L64.405 80.7102L64.3783 80.8703L68.3241 81.5265ZM69.5456 76.2829L73.4475 77.1632L69.5456 76.2829ZM151.818 15.8775L152.792 11.9979L151.818 15.8775ZM111.82 63.9409L108.908 61.1992L108.908 61.1992L111.82 63.9409ZM110.358 77.4607L114.118 78.8257L114.188 78.6332L114.238 78.4344L110.358 77.4607ZM105.521 90.7841L101.761 89.419L101.761 89.419L105.521 90.7841ZM104.471 91.4367L104.031 95.4125L104.031 95.4125L104.471 91.4367ZM97.0947 90.6211L96.655 94.5969L96.655 94.5969L97.0947 90.6211ZM96.2863 89.2312L92.6132 87.6474L92.6132 87.6474L96.2863 89.2312ZM103.209 73.1767L99.536 71.5928L99.536 71.5928L103.209 73.1767ZM103.399 72.8872L100.487 70.1456L100.487 70.1456L103.399 72.8872ZM161.604 76.2931L165.505 75.4124L165.505 75.4124L161.604 76.2931ZM159.669 76.2299L155.833 75.0966L155.833 75.0966L159.669 76.2299ZM164.309 88.2779L168.211 87.3972L168.211 87.3971L164.309 88.2779ZM164.325 88.6238L168.294 89.1267L168.294 89.1266L164.325 88.6238ZM162.127 105.969L166.096 106.471L166.096 106.471L162.127 105.969ZM160.725 106.755L162.367 103.107L162.367 103.107L160.725 106.755ZM153.958 103.708L152.315 107.355L152.315 107.355L153.958 103.708ZM153.385 102.612L149.453 101.877L149.453 101.877L153.385 102.612ZM155.991 88.6795L152.155 87.5462L152.097 87.7427L152.059 87.9441L155.991 88.6795ZM138.037 81.1963L134.201 80.063L134.201 80.063L138.037 81.1963ZM139.976 81.2789L143.894 80.4758L143.894 80.4758L139.976 81.2789ZM135.953 88.2504L132.117 87.1171L132.061 87.3046L132.025 87.4965L135.953 88.2504ZM134.198 97.3962L138.126 98.1501L138.126 98.1501L134.198 97.3962ZM134.763 98.4939L133.098 102.131L133.098 102.131L134.763 98.4939ZM138.425 100.171L136.759 103.808L136.759 103.808L138.425 100.171ZM139.832 99.3949L135.868 98.8629L135.868 98.8629L139.832 99.3949ZM141.336 88.1926L137.371 87.6607L137.371 87.6607L141.336 88.1926ZM141.324 87.8589L145.243 87.0559L145.243 87.0559L141.324 87.8589ZM127.963 78.5658L124.888 76.0074L124.888 76.0074L127.963 78.5658ZM129.711 79.4085L125.794 78.5959L125.794 78.5959L129.711 79.4085ZM123.667 83.7291L120.592 81.1707L120.592 81.1708L123.667 83.7291ZM123.499 84.0178L127.245 85.4211L127.245 85.4211L123.499 84.0178ZM119.534 94.6021L123.28 96.0054L123.28 96.0054L119.534 94.6021ZM120.408 95.9509L120.159 99.9432L120.159 99.9432L120.408 95.9509ZM124.428 96.2017L124.179 100.194L124.179 100.194L124.428 96.2017ZM125.444 95.5013L121.626 94.3106L121.626 94.3107L125.444 95.5013ZM128.216 86.6106L132.035 87.8012L132.093 87.6146L132.133 87.4232L128.216 86.6106ZM154.627 36.3823L158.603 35.9414L158.603 35.9414L154.627 36.3823ZM151.781 39.7637L147.902 38.79L147.869 38.9226L147.844 39.0573L151.781 39.7637ZM150.479 47.024L154.416 47.7305L154.416 47.7305L150.479 47.024ZM151.03 48.1019L149.297 51.7071L149.297 51.7071L151.03 48.1019ZM152.278 48.7018L154.011 45.0967L154.011 45.0967L152.278 48.7018ZM153.702 47.938L157.664 48.488L157.664 48.488L153.702 47.938ZM154.911 39.2218L150.949 38.6718L150.949 38.6718L154.911 39.2218ZM154.915 38.974L150.939 39.4149L150.939 39.415L154.915 38.974ZM140.201 32.7612L143.497 35.0273L143.497 35.0273L140.201 32.7612ZM138.723 34.91L135.427 32.644L135.427 32.644L138.723 34.91ZM138.609 35.13L142.361 36.5162L142.361 36.5162L138.609 35.13ZM135.56 43.3845L131.808 41.9983L131.808 41.9983L135.56 43.3845ZM136.454 44.7301L136.629 40.7339L136.629 40.7339L136.454 44.7301ZM137.837 44.7907L137.662 48.7869L137.662 48.7869L137.837 44.7907ZM138.832 44.1008L135.028 42.8643L135.028 42.8643L138.832 44.1008ZM141.112 37.0859L144.916 38.3224L144.959 38.1923L144.992 38.0596L141.112 37.0859ZM111.284 177.368C119.332 179.388 128.194 177.363 136.681 173.446C145.238 169.498 153.905 163.405 161.842 156.533C169.796 149.646 177.136 141.872 183.025 134.448C188.871 127.081 193.463 119.839 195.719 114.009L188.258 111.122C186.423 115.864 182.392 122.375 176.758 129.476C171.168 136.521 164.172 143.933 156.605 150.485C149.022 157.051 140.986 162.649 133.33 166.182C125.604 169.747 118.743 170.992 113.232 169.609L111.284 177.368ZM64.3783 80.8703C59.2182 111.899 63.1604 133.559 72.5739 148.826C81.986 164.091 96.4603 172.3 110.961 177.272L113.556 169.705C100.012 165.061 87.4579 157.723 79.3835 144.627C71.3104 131.534 67.3078 112.021 72.27 82.1827L64.3783 80.8703ZM65.6437 75.4026C65.1975 77.3803 64.8103 79.0951 64.4445 80.5527L72.2038 82.5003C72.5979 80.9301 73.0077 79.1126 73.4475 77.1632L65.6437 75.4026ZM152.792 11.9979C136.03 7.7912 122.358 7.96629 111.184 11.2492C99.9803 14.5408 91.582 20.871 85.26 28.4739C72.7775 43.4853 68.3019 63.6208 65.6437 75.4026L73.4475 77.1632C76.1649 65.119 80.3427 46.8997 91.4112 33.5888C96.8646 27.0305 103.966 21.7078 113.439 18.9248C122.942 16.133 135.123 15.8117 150.844 19.7572L152.792 11.9979ZM195.719 114.009C199.341 104.648 203.135 94.7882 205.613 85.0703C208.092 75.3513 209.342 65.4663 207.666 56.0431C205.969 46.5006 201.308 37.6564 192.394 30.094C183.567 22.6062 170.721 16.4975 152.792 11.9979L150.844 19.7572C168.075 24.0816 179.648 29.7722 187.219 36.1946C194.701 42.5423 198.416 49.7191 199.79 57.4439C201.185 65.2881 200.202 73.9167 197.861 83.0933C195.521 92.2709 191.909 101.688 188.258 111.122L195.719 114.009ZM117.398 65.8435C118.653 60.845 112.44 57.4466 108.908 61.1992L114.733 66.6825C112.614 68.9341 108.886 66.8951 109.639 63.896L117.398 65.8435ZM114.238 78.4344L117.398 65.8435L109.639 63.896L106.478 76.4869L114.238 78.4344ZM109.281 92.1491L114.118 78.8257L106.598 76.0956L101.761 89.419L109.281 92.1491ZM104.031 95.4125C106.324 95.666 108.493 94.3177 109.281 92.1491L101.761 89.419C102.233 88.1178 103.535 87.3088 104.911 87.461L104.031 95.4125ZM96.655 94.5969L104.031 95.4125L104.911 87.461L97.5343 86.6454L96.655 94.5969ZM92.6132 87.6474C91.2824 90.7336 93.3146 94.2275 96.655 94.5969L97.5343 86.6454C99.5385 86.867 100.758 88.9633 99.9594 90.8151L92.6132 87.6474ZM99.536 71.5928L92.6132 87.6474L99.9594 90.8151L106.882 74.7605L99.536 71.5928ZM100.487 70.1456C100.088 70.5691 99.7663 71.0588 99.536 71.5928L106.882 74.7605C106.744 75.0809 106.551 75.3747 106.312 75.6288L100.487 70.1456ZM108.908 61.1992L100.487 70.1456L106.312 75.6289L114.733 66.6825L108.908 61.1992ZM165.505 75.4124C164.371 70.3853 157.293 70.1542 155.833 75.0966L163.505 77.3632C162.629 80.3287 158.383 80.19 157.702 77.1738L165.505 75.4124ZM168.211 87.3971L165.505 75.4124L157.702 77.1738L160.407 89.1586L168.211 87.3971ZM168.294 89.1266C168.367 88.5496 168.339 87.9643 168.211 87.3972L160.407 89.1585C160.33 88.8183 160.313 88.4672 160.357 88.1209L168.294 89.1266ZM166.096 106.471L168.294 89.1267L160.357 88.1208L158.159 105.466L166.096 106.471ZM159.082 110.402C162.147 111.782 165.673 109.806 166.096 106.471L158.159 105.466C158.413 103.465 160.528 102.279 162.367 103.107L159.082 110.402ZM152.315 107.355L159.082 110.402L162.367 103.107L155.6 100.061L152.315 107.355ZM149.453 101.877C149.029 104.145 150.212 106.408 152.315 107.355L155.6 100.061C156.862 100.629 157.571 101.987 157.317 103.348L149.453 101.877ZM152.059 87.9441L149.453 101.877L157.317 103.348L159.923 89.4149L152.059 87.9441ZM155.833 75.0966L152.155 87.5462L159.827 89.8128L163.505 77.3632L155.833 75.0966ZM141.873 82.3296C140.988 85.3256 136.684 85.1423 136.057 82.0819L143.894 80.4758C142.849 75.3751 135.676 75.0697 134.201 80.063L141.873 82.3296ZM139.789 89.3837L141.873 82.3296L134.201 80.063L132.117 87.1171L139.789 89.3837ZM138.126 98.1501L139.881 89.0042L132.025 87.4965L130.269 96.6424L138.126 98.1501ZM136.429 94.8572C137.686 95.4329 138.387 96.7926 138.126 98.1501L130.27 96.6424C129.835 98.9049 131.003 101.171 133.098 102.131L136.429 94.8572ZM140.091 96.5344L136.429 94.8572L133.098 102.131L136.759 103.808L140.091 96.5344ZM135.868 98.8629C136.136 96.8653 138.258 95.6951 140.091 96.5344L136.759 103.808C139.813 105.207 143.35 103.256 143.797 99.9268L135.868 98.8629ZM137.371 87.6607L135.868 98.8629L143.797 99.9268L145.3 88.7246L137.371 87.6607ZM137.405 88.6619C137.338 88.3324 137.326 87.994 137.371 87.6607L145.3 88.7246C145.375 88.1691 145.355 87.605 145.243 87.0559L137.405 88.6619ZM136.057 82.0819L137.405 88.6619L145.243 87.0559L143.894 80.4758L136.057 82.0819ZM131.038 81.1241C129.04 83.5256 125.159 81.6548 125.794 78.5959L133.627 80.2211C134.685 75.1229 128.218 72.005 124.888 76.0074L131.038 81.1241ZM126.742 86.2874L131.038 81.1241L124.888 76.0074L120.592 81.1707L126.742 86.2874ZM127.245 85.4211C127.127 85.7361 126.957 86.0289 126.742 86.2874L120.592 81.1708C120.233 81.6016 119.95 82.0896 119.753 82.6146L127.245 85.4211ZM123.28 96.0054L127.245 85.4211L119.753 82.6145L115.788 93.1988L123.28 96.0054ZM120.657 91.9587C122.669 92.0842 123.987 94.118 123.28 96.0054L115.788 93.1987C114.61 96.3444 116.806 99.734 120.159 99.9432L120.657 91.9587ZM124.677 92.2094L120.657 91.9587L120.159 99.9432L124.179 100.194L124.677 92.2094ZM121.626 94.3107C122.037 92.991 123.297 92.1234 124.677 92.2094L124.179 100.194C126.478 100.337 128.577 98.8912 129.263 96.6918L121.626 94.3107ZM124.398 85.42L121.626 94.3106L129.263 96.6919L132.035 87.8012L124.398 85.42ZM125.794 78.5959L124.3 85.798L132.133 87.4232L133.627 80.2211L125.794 78.5959ZM156.543 37.2229C155.729 40.4662 151.02 40.1468 150.652 36.8232L158.603 35.9414C157.989 30.402 150.141 29.8697 148.784 35.2753L156.543 37.2229ZM155.661 40.7375L156.543 37.2229L148.784 35.2753L147.902 38.79L155.661 40.7375ZM154.416 47.7305L155.719 40.4702L147.844 39.0573L146.542 46.3176L154.416 47.7305ZM152.763 44.4968C153.978 45.0808 154.654 46.4036 154.416 47.7305L146.542 46.3175C146.145 48.5291 147.272 50.7337 149.297 51.7071L152.763 44.4968ZM154.011 45.0967L152.763 44.4968L149.297 51.7071L150.545 52.307L154.011 45.0967ZM149.74 47.3881C150.019 45.3743 152.178 44.2159 154.011 45.0967L150.545 52.307C153.599 53.7749 157.198 51.8442 157.664 48.488L149.74 47.3881ZM150.949 38.6718L149.74 47.3881L157.664 48.488L158.873 39.7717L150.949 38.6718ZM150.939 39.415C150.912 39.1676 150.915 38.9179 150.949 38.6718L158.873 39.7718C158.93 39.3614 158.936 38.9453 158.89 38.533L150.939 39.415ZM150.652 36.8232L150.939 39.4149L158.89 38.5332L158.603 35.9414L150.652 36.8232ZM143.497 35.0273C141.602 37.783 137.301 35.8407 138.115 32.5974L145.874 34.545C147.231 29.1394 140.062 25.9024 136.904 30.4952L143.497 35.0273ZM142.02 37.1761L143.497 35.0273L136.904 30.4951L135.427 32.644L142.02 37.1761ZM142.361 36.5162C142.275 36.7496 142.16 36.9712 142.02 37.1761L135.427 32.644C135.192 32.9855 135.001 33.3549 134.857 33.7438L142.361 36.5162ZM139.312 44.7707L142.361 36.5162L134.857 33.7438L131.808 41.9983L139.312 44.7707ZM136.629 40.7339C138.66 40.8229 140.016 42.8637 139.312 44.7707L131.808 41.9983C130.633 45.1767 132.894 48.578 136.279 48.7263L136.629 40.7339ZM138.012 40.7945L136.629 40.7339L136.279 48.7263L137.662 48.7869L138.012 40.7945ZM135.028 42.8643C135.445 41.5822 136.666 40.7356 138.012 40.7945L137.662 48.7869C139.907 48.8852 141.942 47.4741 142.636 45.3373L135.028 42.8643ZM137.308 35.8493L135.028 42.8643L142.636 45.3373L144.916 38.3224L137.308 35.8493ZM138.115 32.5974L137.233 36.1121L144.992 38.0596L145.874 34.545L138.115 32.5974Z" fill="#2E2E2E" mask="url(#path-15-inside-2)"/>
<path d="M128.158 59.9437L131.75 56.9662C134.049 55.0609 136.967 54.0658 139.95 54.1697L140.035 54.1727C141.643 54.2287 143.223 54.6137 144.677 55.3039V55.3039C147.674 56.727 149.931 59.3484 150.894 62.5233L151.921 65.9082" stroke="black" stroke-width="4" stroke-linecap="round"/>
<path d="M88.8145 116.055L91.7283 114.664C100.85 110.309 111.16 109.107 121.039 111.249L121.244 111.293C123.33 111.745 125.38 112.353 127.376 113.111V113.111C135.828 116.322 143.046 122.126 147.996 129.691L148.949 131.148" stroke="black" stroke-width="4" stroke-linecap="round"/>
</g>
<defs>
<filter id="filter0_d" x="169.128" y="60.3257" width="210.586" height="309.82" filterUnits="userSpaceOnUse" color-interpolation-filters="sRGB">
<feFlood flood-opacity="0" result="BackgroundImageFix"/>
<feColorMatrix in="SourceAlpha" type="matrix" values="0 0 0 0 0 0 0 0 0 0 0 0 0 0 0 0 0 0 127 0" result="hardAlpha"/>
<feOffset dx="9" dy="10"/>
<feGaussianBlur stdDeviation="2"/>
<feComposite in2="hardAlpha" operator="out"/>
<feColorMatrix type="matrix" values="0 0 0 0 0 0 0 0 0 0 0 0 0 0 0 0 0 0 0.25 0"/>
<feBlend mode="normal" in2="BackgroundImageFix" result="effect1_dropShadow"/>
<feBlend mode="normal" in="SourceGraphic" in2="effect1_dropShadow" result="shape"/>
</filter>
<filter id="filter1_d" x="9.51978" y="61.4092" width="235.306" height="323.133" filterUnits="userSpaceOnUse" color-interpolation-filters="sRGB">
<feFlood flood-opacity="0" result="BackgroundImageFix"/>
<feColorMatrix in="SourceAlpha" type="matrix" values="0 0 0 0 0 0 0 0 0 0 0 0 0 0 0 0 0 0 127 0" result="hardAlpha"/>
<feOffset dx="6" dy="8"/>
<feGaussianBlur stdDeviation="8"/>
<feComposite in2="hardAlpha" operator="out"/>
<feColorMatrix type="matrix" values="0 0 0 0 0 0 0 0 0 0 0 0 0 0 0 0 0 0 0.25 0"/>
<feBlend mode="normal" in2="BackgroundImageFix" result="effect1_dropShadow"/>
<feBlend mode="normal" in="SourceGraphic" in2="effect1_dropShadow" result="shape"/>
</filter>
<filter id="filter2_d" x="25" y="229" width="138.243" height="176.5" filterUnits="userSpaceOnUse" color-interpolation-filters="sRGB">
<feFlood flood-opacity="0" result="BackgroundImageFix"/>
<feColorMatrix in="SourceAlpha" type="matrix" values="0 0 0 0 0 0 0 0 0 0 0 0 0 0 0 0 0 0 127 0" result="hardAlpha"/>
<feOffset dx="4" dy="10"/>
<feGaussianBlur stdDeviation="2"/>
<feComposite in2="hardAlpha" operator="out"/>
<feColorMatrix type="matrix" values="0 0 0 0 0 0 0 0 0 0 0 0 0 0 0 0 0 0 0.25 0"/>
<feBlend mode="normal" in2="BackgroundImageFix" result="effect1_dropShadow"/>
<feBlend mode="normal" in="SourceGraphic" in2="effect1_dropShadow" result="shape"/>
</filter>
<filter id="filter3_d" x="49" y="0" width="173.884" height="202.318" filterUnits="userSpaceOnUse" color-interpolation-filters="sRGB">
<feFlood flood-opacity="0" result="BackgroundImageFix"/>
<feColorMatrix in="SourceAlpha" type="matrix" values="0 0 0 0 0 0 0 0 0 0 0 0 0 0 0 0 0 0 127 0" result="hardAlpha"/>
<feOffset dx="4" dy="9"/>
<feGaussianBlur stdDeviation="2"/>
<feComposite in2="hardAlpha" operator="out"/>
<feColorMatrix type="matrix" values="0 0 0 0 0 0 0 0 0 0 0 0 0 0 0 0 0 0 0.25 0"/>
<feBlend mode="normal" in2="BackgroundImageFix" result="effect1_dropShadow"/>
<feBlend mode="normal" in="SourceGraphic" in2="effect1_dropShadow" result="shape"/>
</filter>
</defs>
</svg>
